<svg xmlns="http://www.w3.org/2000/svg" data-name="Layer 1" viewBox="0 0 360 240">
  <path d="M279.34 68.48c-6.03 1.21-11.36 5.44-16.35 1.01-1.3-1.13-2.5-2.72-3.6-4.13-4.6-6.33-11.76-10.94-19.67-11.58l-.39-.03c-15.32-1.44-28.62 12.15-29.65 27.35-1.78 20.29 15.88 55.34 31.23 67.02 6.89 3.83 14.2-.24 21.18-2.57 16.82-6.76 34.87-18.02 44.88-33.19 13.1-20.85-1.94-49.26-27.63-43.88Zm-32.67 70.15c-3.61.06-6.38-2.79-8.44-5.44-2.57-3.22-5.32-7.04-8-11.48-6.13-10.39-12.87-25.19-12.68-38.35-.04-10.95 8.64-21.45 20.31-19.66 7.32.98 12.27 7.01 15.62 13.25 1.74 2.96 3 7.16 6.32 8.28 2.36.79 5.25-.82 7.46-2.12 5.11-3.02 10.57-5.88 16.3-5.61 7.18.22 13.56 5.82 15.37 12.66.64 2.13.61 3.9-1.27 4.97-6.25 3.26-14.95 3.9-4.32 10.36 1.33.94 2.27 1.66.09 2.07-2.93.63-9.71 1.99-13.19 2.71-2.15.26-5.15 1.73-2.63 4.07 1.71 1.48 4.98 2.69 6.92 3.89 1.31.75-.11.63-.87.61-3.48-.16-13.25-.67-17.52-.87-1.18-.04-2.77-.13-3.48.87-1.03 1.63.96 3.1 2.22 3.96 2.3 1.57 5.98 3.79 6.85 4.57 1.13.99-2.45.57-3.11.67h-8c-2.23.05-5.3-.16-4.79 2.19.53 1.36 2.61 1.98 3.48 3.1.83 1.69-2.96 2.6-5.26 3.53-2.35.76-4.73 1.67-7.21 1.76h-.17Zm56.03 3.94c2.33 6.18-2.65 15.01 2.35 20.41 3.52 3.7 10.05 6.45 12.08 10.59 2.72 7.87-12.99 3.85-17.03 4.48-8.3-.19-11.25 16.15-18.49 14.49-5.05-3.76-.11-14.43-2.37-19.81-2.31-5.34-10.65-8.02-13.3-12.4-1.94-2.78-.41-5.22 3.33-5.63 4.34-.64 9.79.84 14.16.22 6.63-1.07 9.15-10.66 13.95-13.65 1.85-1.43 4.41-1.33 5.26 1.15l.06.14Zm-93.2-122.4c-.03-.14 0-.05.02.09.13.66.08.95.09 1.53-.34 8.24 3.4 16.24 9.92 21.27 1.15.81 2.49 2.65.41 3.29-9.13-.03-17 2.52-22.82 9.92-1.3 1.82-3.32 2.67-3.56-.32.43-8.43-3.07-16.73-9.79-21.94-1.22-.89-2.73-2.7-.57-3.42.93-.24 1.54-.13 2.47-.14 7.71.08 15.07-3.35 19.97-9.31.44-.56 1.11-1.37 1.56-1.7.8-.66 1.96-.55 2.25.58l.04.15Z"/>
  <path fill-rule="evenodd" d="M162.24 159.45c.45-.1.89-.29 1.29-.56l-1.29.56Zm22.77-26.23s.02.04.03.07c.12-.04.23-.09.35-.13l-.38.06Z"/>
  <path d="M191.7 160.35c-17.47 2.96-43.54 7.38-62.39 10.57-32.24 3.04-56.79-36.37-20.16-53.71 5.46-2.93 14.74-8 19.2-1.83 3.83 5.58-4.81 16.01-11.53 22.98-4.43 4.14-1.84 9.4 4 9.44 1.05.21 4.06.03 2.72.73-5.73 4 7.6.87 9.05 1.28-1.55.9-4.14 1.23-5.36 2.4-.6 1.14.77 1.7 1.72 1.29.58.05 21.48-5.51 15.42-3.03-2.05.81-6.01 2.37-7.89 3.12-1.3.34-2.32 1.58-1.02 2.39.73.85 20.56-6.19 14.56-2.92-1.6 1.24-8.63 3.22-6.71 4.66.15.95 16.42-4.01 11.56-1.35-1.67.97-7.98 2.62-4.53 5.2 2.62.45 5.35-.79 8.55-1.14 7.42-.18 7.06-7.17 3.41-11.86-3.62-4.75-9.05-7.9-14.8-9.24-3.79-.79-8.23-1.12-11.22-3.85-6.54-6.72 5.44-19.09-4.89-26.41-4.57-3.45-13.19-2.49-18.67-.56-9.85 2.68-19.66-3.43-22.48-12.98-5.26-15.12-22.76-39.03-17.78-48.38 14.42-19.88 27.61 29.26 31.36 39.71 1.83 6.54 10.2 9.5 12.88 1.98 3.47-15.37-9.53-57.05 7.62-62.12 6.32-.91 8.75 5.34 10.18 12.71 3.97 29.82-6.58 53.43 12.24 79.64 5.87 8.6 17.29 3.07 25.47 4.29.41.17-.38.36-.6.44-2.27.63-7.95 2.16-10.1 2.76-1.7.22-1.95 2.25-.04 2.13 3-.27 10.04-1.07 13.03-1.37 3.25-.42-10.09 4.33-9.38 4.39-1 .98.53 1.64 1.44 1.25 2.78-.52 10.79-2.05 13.56-2.57.19-.03.34-.06.44-.08-.98.76-6.35 1.65-7.63 2.79-.82 2.5 1.93 1.59 4.55 1.25 1.68-.1 10.79-2.09 4.95-.08-2.47 1.29-9.74 2.48-7.49 4.4 1.46.64 7.29-1.32 9.34-1.37.13.02.12.08.04.18-.27.29-1.73 1.26-1.85 2.28-.26 1.81 1.98 1.63 3.06 2.17.97.68.79 2.25.83 3.38.07 4.76.91 7.92 3.91 7.59 2.26-.19 3.88-2.42 3.87-4.46.21-2.85 1.12-15.52 1.59-21.94 1.11-12.79.2-25.41-2.3-37.34-.61-2.82-1.15-5.74-1.99-8.53-3.45-11.21-18.96-14.39-26.64-6.09-.99 1.28-2.41 1.59-3.71.55-4.91-3.25-12.41-2.25-17.18 1.38-.47.27-1.28 1.1-1.71.84-1.49-18.48 4.12-54.65-16.27-56.65-23.52-.09-18.16 42.14-15.55 56.58.88 9.66-7.78-13.63-8.46-15.84C97.84 50 90.47 32.03 75.67 36.09c-10.43 2.65-12.9 12.22-10.39 22.71 2.27 10.71 8.66 23.23 13.55 32.98 10.26 17.59 8.11 29.94 4.49 49.25-2.53 16.49 10.65 28.95 24.77 33.48-20.87 7.99-16.27 26.51-8.91 39.23 1.93 3.91 5.96 6.91 10.4 7.16 3.97.04 66.25.08 86.35.05 2.01-.05 4.44-.34 6.44-1.02 11.16-3.47 14.89-14.48 14.2-25.3.07-9.19-1.03-20.7-6.23-27.87-3.49-5.39-10.94-8.01-18.5-6.45l-.12.02Zm-17.8-82.26c.82-.24 4.04-.9 2.18.83-.52.51-1.01 1.06-.87 1.48.49 1.22 2.43.77 3.31 1.34.27.22-.09.59-.64 1.08-.68.6-1.25 1.31-.56 1.91.91 1.14 7.18-.2 5.15 1.63-.88.77-2.37 2.31-.32 2.66 1.26.36 3.5-.36 4.57.64.47.47.63 1.06.8 1.76.95 4.09 1.18 8.26.65 11.39-.8 7.2-10.59 8.25-13.64 1.97-2.63-6.18-9.27-23.66-.81-26.63l.16-.05Zm-29.13 8c1.07-3.67 4.78-6.67 8.66-7.23 1.25-.2 1.94.1.49 1.31-3.37 2.81-2.62 4.61 1.97 3.32 4.9-1.13-.97 2.03-.04 3.66 1.19 1.38 3.67-.33 5.11.18.43.34-1.09 1.95-.63 2.84.39.78 1.41.78 2.19.84 1.33-.02 2.28.82 2.52 2.13 3.3 13.43 1.91 30.17-10.06 19.66-6.54-6.38-12.71-17.16-10.25-26.54l.05-.17Zm17.89 110.89c-.82-2.12-1.63-5.72-2.45-8.34-.68-2.39-1.27-4.46-1.45-5.14-.11-.41-.06-.85.12-1.27 1.09-2.26 4.82-1.25 4.85.99.23 1.91 1.4 11.59 1.57 13.09.13 1.12-1.63 1.79-2.58.73l-.06-.07Zm-19.82 1.14c-1.01-3.55-2.65-10.05-3.06-12.35-.09-1.92 3.27-2.81 4.53-1 .3.42.46.91.46 1.37.04 1.01.2 4.53.32 7.44.07 1.7.12 2.72.17 3.98 0 .26-.04.55-.37.83-.51.51-1.59.35-2-.2l-.06-.07Zm10.11 3.47c-.5-.98-.4-1.88-.88-3.98-.85-4.76-2.13-10.63-2.37-12.83.06-1.86 3.13-2.74 4.47-1.03.35.42.52.92.51 1.39.02 1.23.11 6.27.17 10.4.04 2.2.06 3.72.09 5.37.17.86-1.18 1.42-1.93.74l-.06-.06Zm36.11 1.19c-15.68 2.2-16.41-.53-18.28-14.88-.62-3.85-.98-7.76 2.8-10.05 4.52-2.64 10.37-3.31 15.42-3.9 10.3-.95 12.52 2.07 13.5 11.4.3 2.03.68 4.26.79 6.24.97 8.02-7.06 10.07-14.05 11.17l-.17.03ZM63.87 150.85c1.63 2.52 2.3 6.38 3.46 9.28.64 1.95.97 2.4 2.66 3.39 2.48 1.54 5.48 3.09 7.8 4.72 2.33 1.85.45 3.92-1.85 4.44-2.61.92-6.42 2.05-8.43 2.9-1.42.69-1.89 2.11-2.76 3.46-1.5 2.22-3.56 6.99-5.18 7.4-1.78.6-2.79-1.43-3.24-3.02-.92-2.63-2-6.25-2.83-8.22-1.2-2.04-3.86-2.77-5.79-4.13-2.92-1.93-5.22-2.37-5.15-4.66.03-1 1.34-1.83 2.49-2.18 2.08-.73 6.03-2 7.93-2.67.88-.31 1.64-.67 2.19-1.46 1.01-1.47 2-3.34 2.98-4.94 2.02-3.15 2.82-6.16 5.62-4.41l.1.09Z"/>
</svg>
